<svg xmlns="http://www.w3.org/2000/svg" width="33" height="33" viewBox="0 0 33 33">
  <g id="Grupo_143752" data-name="Grupo 143752" transform="translate(-83.998 -528)">
    <path id="Trazado_11989" data-name="Trazado 11989" d="M116.477,537.171l-8.651-8.651a1.771,1.771,0,0,0-1.215-.521H94.385a1.635,1.635,0,0,0-1.217.521l-8.649,8.651A1.763,1.763,0,0,0,84,538.387v12.227a1.628,1.628,0,0,0,.521,1.217l8.649,8.649a1.768,1.768,0,0,0,1.217.521h12.227a1.624,1.624,0,0,0,1.215-.521l8.651-8.649a1.776,1.776,0,0,0,.521-1.217V538.387a1.631,1.631,0,0,0-.521-1.215Zm-2.953,12.713-7.642,7.642H95.114l-7.642-7.642V539.116l7.642-7.642h10.8l7.642,7.642v10.768Z" fill="#f57171"/>
    <path id="Trazado_11990" data-name="Trazado 11990" d="M93.789,545.111a1.72,1.72,0,0,0,1.736-1.738V533.3a1.737,1.737,0,1,0-3.474,0v10.038a1.75,1.75,0,0,0,1.738,1.773Z" transform="translate(6.709 2.968)" fill="#f57171"/>
    <path id="Trazado_11991" data-name="Trazado 11991" d="M96.233,542.1a2.224,2.224,0,1,1-2.224-2.224,2.223,2.223,0,0,1,2.224,2.224" transform="translate(6.488 9.898)" fill="#f57171"/>
  </g>
</svg>
