<svg id="Grupo_7212" data-name="Grupo 7212" xmlns="http://www.w3.org/2000/svg" xmlns:xlink="http://www.w3.org/1999/xlink" width="14.863" height="18.711" viewBox="0 0 14.863 18.711">
  <defs>
    <clipPath id="clip-path">
      <rect id="Rectángulo_2127" data-name="Rectángulo 2127" width="14.863" height="18.711" fill="#999"/>
    </clipPath>
  </defs>
  <g id="Grupo_6858" data-name="Grupo 6858" clip-path="url(#clip-path)">
    <path id="Trazado_12272" data-name="Trazado 12272" d="M96.469.5c.111.1.229.2.334.31l4.324,4.529a.817.817,0,0,1,.243.6q-.008,5.346,0,10.691a2.472,2.472,0,0,1-1.952,2.515,2.65,2.65,0,0,1-.581.058q-4.9.005-9.8,0a2.467,2.467,0,0,1-2.53-2.4c0-.045,0-.089,0-.134q0-6.828,0-13.657A2.47,2.47,0,0,1,88.372.541.456.456,0,0,0,88.449.5Zm-.628.883c-.072,0-.125-.011-.178-.011H89.054a1.559,1.559,0,0,0-1.637,1.477,1.5,1.5,0,0,0,0,.173q0,6.811,0,13.62A1.565,1.565,0,0,0,89.083,18.3q4.852,0,9.7,0a1.573,1.573,0,0,0,1.671-1.469,1.593,1.593,0,0,0,0-.205V6.215H97.921a1.976,1.976,0,0,1-2.082-2.077c0-.848,0-1.7,0-2.544ZM99.823,5.3,96.756,2.077c-.006.1-.012.148-.012.2,0,.622,0,1.245,0,1.867a1.082,1.082,0,0,0,1.181,1.167c.568,0,1.135,0,1.7,0,.052,0,.1-.006.194-.011" transform="translate(-86.508 -0.502)" fill="#999"/>
    <path id="Trazado_12273" data-name="Trazado 12273" d="M108.19,31.878l.887-.949c.329-.352.656-.707.989-1.055a.448.448,0,0,1,.553-.085.438.438,0,0,1,.2.521.58.58,0,0,1-.132.215q-1.282,1.382-2.569,2.759a.463.463,0,0,1-.77-.017q-1.274-1.364-2.544-2.732a.455.455,0,1,1,.661-.615c.555.591,1.106,1.187,1.659,1.781.04.043.081.085.161.169v-.259q0-2.26,0-4.52a.945.945,0,0,1,.048-.339.432.432,0,0,1,.491-.26.448.448,0,0,1,.362.445c0,.482,0,.964,0,1.446v3.239Z" transform="translate(-100.311 -20.28)" fill="#999"/>
    <path id="Trazado_12274" data-name="Trazado 12274" d="M104.294,62c1.22,0,2.441,0,3.661.005a.724.724,0,0,1,.37.116.377.377,0,0,1,.153.421.438.438,0,0,1-.323.34,1,1,0,0,1-.254.024q-3.6,0-7.194,0a.824.824,0,0,1-.319-.054.435.435,0,0,1-.248-.5.467.467,0,0,1,.475-.351q1.84,0,3.679,0" transform="translate(-96.877 -47.319)" fill="#999"/>
  </g>
</svg>
