<svg id="Grupo_8711" data-name="Grupo 8711" xmlns="http://www.w3.org/2000/svg" xmlns:xlink="http://www.w3.org/1999/xlink" width="29.224" height="15.61" viewBox="0 0 29.224 15.61">
  <defs>
    <clipPath id="clip-path">
      <rect id="Rectángulo_3174" data-name="Rectángulo 3174" width="29.224" height="15.61" transform="translate(0 0)" fill="none"/>
    </clipPath>
  </defs>
  <g id="Grupo_8710" data-name="Grupo 8710" transform="translate(0 0)" clip-path="url(#clip-path)">
    <path id="Trazado_13018" data-name="Trazado 13018" d="M14.573,13.29c.706-.719,1.311-1.344,1.925-1.959Q21.854,5.972,27.215.617a4.79,4.79,0,0,1,.414-.392.949.949,0,0,1,1.293.061.953.953,0,0,1,.094,1.292,3.217,3.217,0,0,1-.324.346L15.559,15.06c-.73.73-1.159.732-1.883.008Q7.091,8.485.506,1.9A1.205,1.205,0,0,1,.009.88.963.963,0,0,1,.654.066.913.913,0,0,1,1.625.25c.132.113.254.238.377.361Q8.117,6.723,14.23,12.837a4.657,4.657,0,0,1,.343.453" transform="translate(0 0)" fill="#161615"/>
  </g>
</svg>
