<svg xmlns="http://www.w3.org/2000/svg" xmlns:xlink="http://www.w3.org/1999/xlink" width="29.549" height="29.533" viewBox="0 0 29.549 29.533">
  <defs>
    <clipPath id="clip-path">
      <rect id="Rectángulo_1401" data-name="Rectángulo 1401" width="29.549" height="29.533" fill="#83cbff"/>
    </clipPath>
  </defs>
  <g id="Grupo_143759" data-name="Grupo 143759" transform="translate(0 0)">
    <g id="Grupo_143758" data-name="Grupo 143758" transform="translate(0 0)" clip-path="url(#clip-path)">
      <path id="Trazado_12445" data-name="Trazado 12445" d="M29.548,14.784A14.774,14.774,0,1,1,14.807,0,14.787,14.787,0,0,1,29.548,14.784M11,1.993A13.335,13.335,0,0,0,4.486,6.309a30.037,30.037,0,0,0,2.968.764c.371.073.553,0,.656-.364A4.294,4.294,0,0,1,8.4,6.08a17.687,17.687,0,0,1,2.658-4.033c.029-.012.074-.023.044-.063-.01-.013-.061.005-.093.009m0,12.032c.938,0,1.876-.006,2.814,0,.219,0,.319-.028.317-.289-.014-1.4-.011-2.8,0-4.2,0-.213-.041-.3-.274-.3a35.87,35.87,0,0,1-4.728-.4c-.189-.029-.282.017-.343.205A19.538,19.538,0,0,0,7.9,13.727c-.017.244.049.306.29.3.938-.014,1.876-.005,2.814-.005m7.593.005c.889,0,1.778-.011,2.666.007.258,0,.331-.062.316-.32a18.426,18.426,0,0,0-.872-4.681c-.053-.161-.121-.21-.285-.186a38.264,38.264,0,0,1-4.58.389c-.227.006-.249.108-.248.294.005,1.4.008,2.8,0,4.2,0,.239.061.307.3.3.9-.015,1.8-.006,2.7-.006m7-.005c.744,0,1.487,0,2.231,0,.146,0,.246.007.23-.207a13.357,13.357,0,0,0-1.958-6.052.245.245,0,0,0-.349-.128,25.8,25.8,0,0,1-3.312.877c-.283.057-.279.147-.207.379a18.911,18.911,0,0,1,.863,4.874c.009.212.071.263.271.26.743-.01,1.487,0,2.231,0m-21.687,0c.755,0,1.51,0,2.265,0,.173,0,.256-.026.265-.232a18.9,18.9,0,0,1,.888-4.975c.074-.233-.009-.249-.2-.293a30.758,30.758,0,0,1-3.269-.881c-.246-.087-.337-.006-.454.185A13.289,13.289,0,0,0,1.49,13.778c-.019.243.077.251.26.249.718-.006,1.437,0,2.155,0M11.031,15.5c-.951,0-1.9.006-2.852,0-.21,0-.3.027-.285.274a20.181,20.181,0,0,0,.8,4.335c.054.182.136.219.314.191a33.926,33.926,0,0,1,4.838-.416c.227,0,.284-.07.282-.291-.01-1.268-.013-2.535,0-3.8,0-.26-.1-.292-.317-.29-.926.01-1.853,0-2.779,0M25.6,15.491c-.731,0-1.461.011-2.192-.006-.244-.006-.335.057-.346.311a18.416,18.416,0,0,1-.759,4.52c-.068.227,0,.275.213.322a25.465,25.465,0,0,1,3.407.928c.212.078.292,0,.388-.167a13.379,13.379,0,0,0,1.738-5.667c.015-.2-.031-.246-.221-.244-.743.008-1.485,0-2.228,0m-21.656,0c-.743,0-1.486,0-2.23,0-.145,0-.243-.008-.226.206A13.385,13.385,0,0,0,3.258,21.43c.082.143.144.21.332.138a21.887,21.887,0,0,1,3.37-.93c.284-.059.32-.142.243-.4a18.429,18.429,0,0,1-.769-4.521c-.009-.212-.093-.229-.262-.227-.743.006-1.486,0-2.23,0m14.692,0c-.914,0-1.829.006-2.743,0-.21,0-.3.032-.3.274q.019,1.92,0,3.84c0,.222.055.286.282.291a33.875,33.875,0,0,1,4.62.408c.214.034.272-.047.324-.219a18.831,18.831,0,0,0,.776-4.339c.013-.227-.063-.256-.257-.255-.9.008-1.8,0-2.706,0m-4.5,9.111c0-.975-.007-1.951.005-2.926,0-.237-.057-.312-.3-.311a32.883,32.883,0,0,0-4.225.32c-.27.036-.312.092-.194.347a17.158,17.158,0,0,0,2.665,4.253,5.982,5.982,0,0,0,1.732,1.44c.241.123.331.11.326-.2-.015-.975-.006-1.951-.006-2.926M14.1,1.538c-2.42,1.338-3.5,3.634-4.7,5.873a39.713,39.713,0,0,0,4.408.361c.255.007.3-.068.3-.3-.012-.8,0-1.609,0-2.414V1.538m1.527,26.176A4.311,4.311,0,0,0,17,26.724a16.584,16.584,0,0,0,3.137-4.76c.115-.242.008-.244-.179-.27-1.328-.191-2.666-.265-4-.336-.282-.015-.344.064-.343.336.012,1.9.006,3.8.007,5.7,0,.095.01.189.017.316m.013-26.055c0,2.033,0,3.964,0,5.9,0,.165.059.2.212.2a29.3,29.3,0,0,0,4.3-.332,13.321,13.321,0,0,0-4.5-5.764M25.28,22.879A27.738,27.738,0,0,0,21.906,22c-.193-.037-.258.043-.319.193a16.734,16.734,0,0,1-3.212,5.182c-.032.034-.119.051-.047.133s.1,0,.154,0a4.74,4.74,0,0,0,.972-.3,12.862,12.862,0,0,0,5.826-4.32M4.247,22.9a13.639,13.639,0,0,0,6.982,4.714c-.389-.473-.743-.871-1.061-1.3A18.536,18.536,0,0,1,7.9,22.256c-.053-.128-.068-.289-.286-.244a30.043,30.043,0,0,0-3.365.888m14.2-20.829c.258.3.527.6.772.914A18.018,18.018,0,0,1,21.509,6.91c.055.126.077.285.293.242a26.494,26.494,0,0,0,3.276-.843,12.728,12.728,0,0,0-6.633-4.238" transform="translate(0 0)" fill="#83cbff"/>
      <path id="Trazado_12446" data-name="Trazado 12446" d="M22.418,4.044c.032,0,.083-.023.093-.01.03.041-.014.052-.044.064-.017-.017-.033-.035-.049-.054" transform="translate(-11.413 -2.052)" fill="#83cbff"/>
    </g>
  </g>
</svg>