<svg xmlns="http://www.w3.org/2000/svg" width="26.398" height="17.598" viewBox="0 0 26.398 17.598"><g transform="translate(-24.774 -23.465)"><path d="M29.907,270.125H28.44a3.666,3.666,0,0,1-3.666-3.666,2.2,2.2,0,0,1,2.2-2.2h2.933v5.866Z" transform="translate(0 -240.794)" fill="#bd4150"/><path d="M57.5,312.521H34.773a2.2,2.2,0,0,1-.734-.125l-.706,1.178v9.264a2.2,2.2,0,0,0,2.2,2.2H57.5l1.467-.785V313.988A1.466,1.466,0,0,0,57.5,312.521Z" transform="translate(-7.799 -284.657)" fill="#e15f78"/><path d="M26.241,291.107a2.206,2.206,0,0,1-1.467-2.075v13.2a2.2,2.2,0,0,0,2.2,2.2H49.705a1.467,1.467,0,0,0,1.467-1.467H28.44a2.2,2.2,0,0,1-2.2-2.2Z" transform="translate(0 -263.368)" fill="#db4655"/><g transform="translate(29.885 30.797)"><path d="M230.632,349.937h-1.439v-1.39h1.627a.733.733,0,1,0,0-1.466h-2.36a.733.733,0,0,0-.733.733v5.823a.733.733,0,1,0,1.467,0V351.4h1.439a.733.733,0,0,0,0-1.467Z" transform="translate(-214.816 -347.06)" fill="#fff"/><path d="M84.7,346.839H83.071a.733.733,0,0,0-.733.733h0v5.866a.733.733,0,0,0,1.467,0V351.62l.9,0a2.389,2.389,0,1,0,0-4.777Zm0,3.311-.893,0c0-.338,0-1.847,0-1.847h.9a.923.923,0,1,1,0,1.844Z" transform="translate(-82.338 -346.839)" fill="#fff"/><path d="M154.176,347.815h-1.612a.733.733,0,0,0-.733.735l0,2.839c0,.792.007,2.855.007,2.855a.733.733,0,0,0,.733.731h0s1.2,0,1.658-.012c1.722-.03,2.972-1.531,2.972-3.567C157.209,349.254,155.99,347.815,154.176,347.815Zm.034,5.68c-.21,0-.573.007-.9.009,0-.671,0-1.632,0-2.116l0-2.107h.877c1.491,0,1.566,1.76,1.566,2.113C155.742,352.427,155.269,353.477,154.21,353.5Z" transform="translate(-145.66 -347.728)" fill="#fff"/></g></g></svg>